<?xml version="1.0" encoding="UTF-8"?>
<svg width="512px" height="512px" viewBox="0 0 512 512" version="1.1" xmlns="http://www.w3.org/2000/svg">
    <title>CTI 3D Icon</title>
    <defs>
        <linearGradient x1="0%" y1="0%" x2="100%" y2="100%" id="linearGradient-1">
            <stop stop-color="#00F3FF" offset="0%"></stop>
            <stop stop-color="#BC13FE" offset="100%"></stop>
        </linearGradient>
        <filter x="-25%" y="-25%" width="150%" height="150%" filterUnits="objectBoundingBox" id="filter-2">
            <feGaussianBlur stdDeviation="20" in="SourceGraphic"></feGaussianBlur>
        </filter>
    </defs>
    <g id="CTI-Icon" stroke="none" stroke-width="1" fill="none" fill-rule="evenodd">
        <path d="M256,64 C323.3,64 384.6,90.7 430.9,137.1 C477.2,183.5 504,244.8 504,312 L504,312 L504,312 C504,379.2 477.2,440.5 430.9,486.9 C384.6,533.3 323.3,560 256,560 C188.7,560 127.4,533.3 81.1,486.9 C34.8,440.5 8,379.2 8,312 L8,312 L8,312 C8,244.8 34.8,183.5 81.1,137.1 C127.4,90.7 188.7,64 256,64 Z" id="Glow" fill="#00F3FF" filter="url(#filter-2)" transform="translate(256.000000, 312.000000) scale(1, -1) translate(-256.000000, -312.000000) "></path>
        <path d="M256,96 L448,288 L256,480 L64,288 L256,96 Z" id="Hexagon-Base" fill="url(#linearGradient-1)"></path>
        <path d="M256,144 L400,288 L256,432 L112,288 L256,144 Z" id="Hexagon-Inner" fill="#0A0E1F"></path>
        <path d="M256,192 L352,288 L256,384 L160,288 L256,192 Z" id="Hexagon-Center" fill="url(#linearGradient-1)" opacity="0.5"></path>
        <path d="M256,240 L304,288 L256,336 L208,288 L256,240 Z" id="Hexagon-Inner-2" fill="#0A0E1F"></path>
        <path d="M256,264 L280,288 L256,312 L232,288 L256,264 Z" id="Hexagon-Center-2" fill="url(#linearGradient-1)" opacity="0.75"></path>
        <circle id="Center-Point" fill="#00F3FF" cx="256" cy="288" r="8"></circle>
        <path d="M256,144 L400,288 L256,432 L112,288 L256,144 Z" id="Outline" stroke="url(#linearGradient-1)" stroke-width="8" stroke-linecap="round" stroke-linejoin="round"></path>
        <path d="M160,192 L352,384" id="Line-1" stroke="url(#linearGradient-1)" stroke-width="8" stroke-linecap="round"></path>
        <path d="M160,384 L352,192" id="Line-2" stroke="url(#linearGradient-1)" stroke-width="8" stroke-linecap="round"></path>
    </g>
</svg>
